<svg xmlns="http://www.w3.org/2000/svg" width="114.783" height="130.657" viewBox="0 0 114.783 130.657">
  <defs>
    <style>
      .cls-1 {
        fill: none;
      }

      .cls-2, .cls-3 {
        stroke: none;
      }

      .cls-3 {
        fill: #6d6d6d;
      }
    </style>
  </defs>
  <g id="Group_57" data-name="Group 57" transform="translate(-406.936 -409.001)">
    <g id="Path_842" data-name="Path 842" class="cls-1" transform="translate(28.334)">
      <path class="cls-2" d="M434.776,409.162l-18.111,11.592a1.028,1.028,0,0,0,.028,1.751l54.083,32.056a1.034,1.034,0,0,1,.5.9l-.406,32.458a1.026,1.026,0,0,0,1.515.914l20.333-10.947a1.022,1.022,0,0,0,.54-.9V443.014a1.028,1.028,0,0,0-.512-.889l-56.906-32.982A1.021,1.021,0,0,0,434.776,409.162Z"/>
      <path class="cls-3" d="M 435.3522644042969 411.1684265136719 L 419.0706176757813 421.589599609375 L 471.7961120605469 452.8407287597656 L 471.79931640625 452.8426513671875 L 471.8025207519531 452.8445739746094 C 472.7257690429688 453.3964538574219 473.2918395996094 454.4068298339844 473.2797546386719 455.4839477539063 L 472.8944396972656 486.2872009277344 L 491.2626037597656 476.3985900878906 L 491.2626037597656 443.5732116699219 L 435.3522644042969 411.1684265136719 M 435.3269958496094 409.0013122558594 C 435.50537109375 409.0013122558594 435.6840209960938 409.0481262207031 435.8446960449219 409.1422119140625 L 492.750732421875 442.1240844726563 C 493.067626953125 442.3067626953125 493.2626037597656 442.6480712890625 493.2626037597656 443.0135803222656 L 493.2626037597656 476.9824523925781 C 493.2626037597656 477.3602905273438 493.0554809570313 477.7054748535156 492.7223205566406 477.8841552734375 L 472.388916015625 488.8307800292969 C 472.2298278808594 488.9168701171875 472.0630798339844 488.9561462402344 471.9006652832031 488.9561462402344 C 471.3579711914063 488.9561462402344 470.8644409179688 488.51708984375 470.8739013671875 487.9168090820313 L 471.2799072265625 455.4589538574219 C 471.2840576171875 455.0892944335938 471.0890808105469 454.7481689453125 470.7763366699219 454.5612182617188 L 416.6932983398438 422.5054626464844 C 416.0353698730469 422.1156005859375 416.0191955566406 421.1692199707031 416.6649780273438 420.7547607421875 L 434.7764587402344 409.1623840332031 C 434.9446716308594 409.05517578125 435.1356506347656 409.0012817382813 435.3269958496094 409.0013122558594 Z"/>
    </g>
    <g id="Path_843" data-name="Path 843" class="cls-1" transform="translate(0 11.764)">
      <path class="cls-2" d="M458.354,423.767l-18.607-10.784a1.019,1.019,0,0,0-1.016-.008L407.46,430.449a1.019,1.019,0,0,0-.524.894v62.272a1.028,1.028,0,0,0,.508.889l20.2,11.735a1.029,1.029,0,0,0,1.543-.889l.057-62.251a1.027,1.027,0,0,1,.508-.885l28.607-16.666A1.029,1.029,0,0,0,458.354,423.767Z"/>
      <path class="cls-3" d="M 439.2237243652344 414.9913635253906 L 408.93603515625 431.9153137207031 L 408.93603515625 493.0576171875 L 427.1881103515625 503.660888671875 L 427.2434997558594 443.0974731445313 C 427.2434997558594 442.0264587402344 427.8176879882813 441.0255432128906 428.7444152832031 440.4839172363281 L 455.9064331054688 424.6602172851563 L 439.2237243652344 414.9913635253906 M 439.2322082519531 412.8435974121094 C 439.4103698730469 412.8435974121094 439.5883178710938 412.8903503417969 439.7474060058594 412.9832458496094 L 458.3544006347656 423.7673645019531 C 459.0367431640625 424.1654968261719 459.0408325195313 425.1483459472656 458.3584289550781 425.5464172363281 L 429.7511596679688 442.2120361328125 C 429.4385070800781 442.394775390625 429.2434997558594 442.7319641113281 429.2434997558594 443.0974731445313 L 429.1865539550781 505.3487548828125 C 429.1835327148438 505.9488220214844 428.6907958984375 506.378662109375 428.1553344726563 506.378662109375 C 427.9841003417969 506.378662109375 427.8084411621094 506.3346557617188 427.6430969238281 506.2382202148438 L 407.4436950683594 494.503662109375 C 407.1310119628906 494.3209228515625 406.93603515625 493.9837341308594 406.93603515625 493.6142578125 L 406.93603515625 431.3426513671875 C 406.93603515625 430.9730224609375 407.1349792480469 430.6276245117188 407.4598999023438 430.4490966796875 L 438.7317199707031 412.9752502441406 C 438.8875122070313 412.8872985839844 439.0599670410156 412.8435974121094 439.2322082519531 412.8435974121094 Z"/>
    </g>
    <g id="Path_844" data-name="Path 844" class="cls-1" transform="translate(19.957 55.846)">
      <path class="cls-2" d="M413.454,442.486v22.153a1.021,1.021,0,0,0,.5.881l30.732,18.148a1.027,1.027,0,0,0,1.036.008l55.4-31.861a1.033,1.033,0,0,0,.516-.886l.118-22.653a1.028,1.028,0,0,0-1.527-.906L444.9,458.221a1.031,1.031,0,0,1-1.011-.008l-28.9-16.617A1.026,1.026,0,0,0,413.454,442.486Z"/>
      <path class="cls-3" d="M 499.7531127929688 429.9299926757813 L 445.8784484863281 459.9679870605469 L 445.8742980957031 459.9703063964844 L 445.8701171875 459.9726257324219 C 445.4227905273438 460.21923828125 444.9166564941406 460.349609375 444.4064025878906 460.349609375 C 443.8797302246094 460.349609375 443.3592529296875 460.2113037109375 442.9011840820313 459.9496765136719 L 442.8987121582031 459.9482727050781 L 442.896240234375 459.9468383789063 L 415.4540710449219 444.1680908203125 L 415.4540710449219 464.0811462402344 L 445.2205505371094 481.6593322753906 L 499.646728515625 450.3604125976563 L 499.7531127929688 429.9299926757813 M 500.7321472167969 427.2408142089844 C 501.2714538574219 427.2408142089844 501.7649230957031 427.6748657226563 501.7617492675781 428.2774658203125 L 501.643798828125 450.9300842285156 C 501.6399536132813 451.2958068847656 501.4450378417969 451.6328125 501.1281433105469 451.8156127929688 L 445.7249145507813 483.6764221191406 C 445.5662536621094 483.7668151855469 445.3887329101563 483.8124694824219 445.21142578125 483.8124694824219 C 445.0302734375 483.8124694824219 444.849365234375 483.7647705078125 444.6893310546875 483.6683349609375 L 413.9576721191406 465.5201721191406 C 413.6449279785156 465.3373718261719 413.4540710449219 465.0001525878906 413.4540710449219 464.6387634277344 L 413.4540710449219 442.4855651855469 C 413.4540710449219 441.8850402832031 413.9443054199219 441.4573364257813 414.4806213378906 441.4573974609375 C 414.6516418457031 441.4573974609375 414.827392578125 441.5009155273438 414.9933471679688 441.5961608886719 L 443.8931579589844 458.2130126953125 C 444.0522766113281 458.3038940429688 444.2292175292969 458.349609375 444.4064025878906 458.349609375 C 444.5775451660156 458.349609375 444.7489013671875 458.3069458007813 444.9045104980469 458.2211608886719 L 500.2345275878906 427.3717346191406 C 500.3960266113281 427.2818603515625 500.5662231445313 427.2408142089844 500.7321472167969 427.2408142089844 Z"/>
    </g>
    <g id="Path_845" data-name="Path 845" class="cls-1" transform="translate(19.963 39.494)">
      <path class="cls-2" d="M413.456,422.935l.162,28.733a1.024,1.024,0,0,0,.52.885l26.54,15.159a1.027,1.027,0,0,0,1.536-.893V438.751a1.023,1.023,0,0,0-.5-.885l-26.7-15.821A1.028,1.028,0,0,0,413.456,422.935Z"/>
      <path class="cls-3" d="M 415.4656982421875 424.6414184570313 L 415.6152954101563 451.0936584472656 L 440.2135925292969 465.1434936523438 L 440.2135925292969 439.3041381835938 L 415.4656982421875 424.6414184570313 M 414.4853515625 421.9002685546875 C 414.6600036621094 421.9002685546875 414.8393249511719 421.9456787109375 415.007568359375 422.0452880859375 L 441.7098693847656 437.865966796875 C 442.022705078125 438.0487976074219 442.2135925292969 438.3858947753906 442.2135925292969 438.75146484375 L 442.2135925292969 466.8185424804688 C 442.2135925292969 467.4178771972656 441.7224426269531 467.8479614257813 441.1851806640625 467.8479614257813 C 441.0160827636719 467.8479614257813 440.8424377441406 467.8053588867188 440.6780700683594 467.7120361328125 L 414.1383666992188 452.5533142089844 C 413.8174743652344 452.3747253417969 413.6224975585938 452.0335083007813 413.6184997558594 451.6678771972656 L 413.4560241699219 422.9346923828125 C 413.4528198242188 422.3306884765625 413.9473876953125 421.9002075195313 414.4853515625 421.9002685546875 Z"/>
    </g>
    <g id="Path_846" data-name="Path 846" class="cls-1" transform="translate(44.77 39.072)">
      <path class="cls-2" d="M422.053,438.35l26.349-16.43a1.026,1.026,0,0,1,1.568.873v29.558a1.03,1.03,0,0,1-.52.9l-26.357,14.9a1.03,1.03,0,0,1-1.535-.9l.012-28.03A1.024,1.024,0,0,1,422.053,438.35Z"/>
      <path class="cls-3" d="M 447.9703063964844 424.5458374023438 L 423.5698547363281 439.760986328125 L 423.5587768554688 465.5864868164063 L 447.9703063964844 451.7873840332031 L 447.9703063964844 424.5458374023438 M 448.9423828125 421.7623291015625 C 449.4765930175781 421.7623291015625 449.9703063964844 422.1891174316406 449.9703063964844 422.7927856445313 L 449.9703063964844 452.3505249023438 C 449.9703063964844 452.7243957519531 449.7713317871094 453.0653686523438 449.4503173828125 453.2481994628906 L 423.0934753417969 468.1469421386719 C 422.9302062988281 468.2387084960938 422.7577209472656 468.2806396484375 422.5897216796875 468.2806396484375 C 422.0511474609375 468.2806396484375 421.5580749511719 467.8499145507813 421.5580749511719 467.2492065429688 L 421.5700988769531 439.2188110351563 C 421.5700988769531 438.8653259277344 421.7529602050781 438.5364074707031 422.0534973144531 438.3495788574219 L 448.4024353027344 421.91943359375 C 448.5752563476563 421.8114318847656 448.7611694335938 421.7623291015625 448.9423828125 421.7623291015625 Z"/>
    </g>
    <g id="Path_847" data-name="Path 847" class="cls-1" transform="translate(21.533 23.113)">
      <path class="cls-2" d="M414.489,432.334l27.466-15.65a1.027,1.027,0,0,1,1.036.012l25.264,15.1a1.028,1.028,0,0,1,.024,1.751L443,449.528a1.02,1.02,0,0,1-1.052.028l-27.45-15.435A1.025,1.025,0,0,1,414.489,432.334Z"/>
      <path class="cls-3" d="M 442.4510803222656 418.7035217285156 L 416.9726867675781 433.2210998535156 L 442.4161682128906 447.5278015136719 L 465.8729553222656 432.7001953125 L 442.4510803222656 418.7035217285156 M 442.4645690917969 416.5500183105469 C 442.647216796875 416.5500183105469 442.8292236328125 416.5987854003906 442.9910278320313 416.6962890625 L 468.2555236816406 431.7940979003906 C 468.9134826660156 432.1881103515625 468.9256591796875 433.1344299316406 468.2799072265625 433.5447692871094 L 442.9950866699219 449.5279541015625 C 442.8284301757813 449.6346740722656 442.6370849609375 449.6886596679688 442.4452819824219 449.6886596679688 C 442.2723693847656 449.6886596679688 442.0990600585938 449.6448059082031 441.9429931640625 449.5562438964844 L 414.4934387207031 434.1215515136719 C 413.794677734375 433.7315063476563 413.794677734375 432.7322998046875 414.4892578125 432.3342895507813 L 441.9553527832031 416.6841125488281 C 442.1142272949219 416.5947265625 442.2897033691406 416.5500183105469 442.4645690917969 416.5500183105469 Z"/>
    </g>
  </g>
</svg>
