<svg xmlns="http://www.w3.org/2000/svg" width="848.135" height="135.887" viewBox="0 0 848.135 135.887">
  <g id="Hi" transform="translate(-1907.025 -1809.758)">
    <path id="Path_27" data-name="Path 27" d="M1918.836,1937.159a49.258,49.258,0,0,1-7.135.781c-1.562-.035-4.259-.674-4.437-1.526-.923-3.833.852-7.454,4.792-7.525,15.369-.248,17.961-11.536,22.078-22.894,4.082-11.146,6.709-22.611,9.832-33.969.816-2.911,1.1-5.963,1.917-8.874.639-2.307,1.739-4.614,4.827-3.833,6.709,1.668,5.679,6.389,4.188,11.146-4.969,15.973-10.258,31.839-14.837,47.883-1.455,5.182,2.343,1.242,3.656,1.207,1.171,0,2.272-.887,3.479-1.065,7.419-1.065,12.743-7.773,21.155-6.709,12.139,1.526,11.394-10.223,15.015-16.789,4.685-8.412,7.525-17.819,11.926-26.408,1.917-3.727,5.076,1.952,7.916.5-.071,1.384.248,2.911-.249,4.082-9.3,22.5-18.848,44.9-27.97,67.441-1.81,4.508-1.278,10.01-3.336,14.376a6.463,6.463,0,0,1-9.939,1.988c-4.792-3.869-.532-8.59.71-12.494,2.485-7.773,6.07-15.192,9.122-22.788a1.89,1.89,0,0,0-.355-1.775,2.5,2.5,0,0,0-2.13-.106c-10.116,5.111-21.652,6.815-31.413,12.885-7.454,4.65-6.176,13.133-9.513,19.558-3.549,6.815-2.556,14.7-4.756,21.794-1.065,3.407-4.4,3.975-7.525,3.124-3.621-.958-5.431-3.372-4.082-7.312,3.443-10.081,6.993-20.161,10.365-30.277C1923.486,1935.526,1920.079,1937.834,1918.836,1937.159Z" transform="translate(0 -31.868)"/>
    <path id="Path_28" data-name="Path 28" d="M2821.813,2087.022c.391-2.626,1.278-8.448,2.094-14.3a6.209,6.209,0,0,0-.426-2.2c-1.775.639-4.188.746-5.218,2.023-6.957,8.59-16.754,12.1-26.906,12.991-4.508.39-2.449-6.318-2.2-9.371.532-6.283.177-12.849,2.946-18.884.923-2.023,1.881-4.437,4.082-3.124,2.662,1.562,7.7,1.278,6.6,6.886a82.9,82.9,0,0,0-.923,9.868c-.036.39.284,1.1.532,1.136.958.142,2.378.461,2.875-.035,5.927-5.928,13.63-9.868,18.741-16.754.675-.923,3.159-1.633,4.011-1.1,3.479,2.094,8.8,2.733,8.27,8.661-.355,3.9-.958,7.773-1.384,11.678-.071.532.5,1.136.781,1.7a14.173,14.173,0,0,0,2.626-1.775c6.638-7.561,13.2-15.192,19.877-22.752,3.976-4.508,8.271-1.207,11.643.5,3.549,1.81,2.484,6.425,3.159,9.974.852,4.543-5.4,10.968,5,13.417,5.644,1.349,1.136,6.638-2.023,8.625-5,3.124-10.755,6.105-16.576,4.614-6.638-1.7-.675-6.176-.639-9.335.036-3.266,1.526-6.46,2.023-9.761.213-1.526-.5-3.195-.781-4.792-3.266,1.1-4.969,3.94-7.064,6.318-6,6.78-9.655,15.689-17.534,20.694a25.514,25.514,0,0,1-11,3.585C2821.707,2095.754,2821.174,2092.737,2821.813,2087.022Z" transform="translate(-568.576 -154.577)"/>
    <path id="Path_29" data-name="Path 29" d="M3263.931,1979.139c-6.212-.284-11.749.816-17.606-.071-9.087-1.384-16.789-11.607-16.186-20.907a89.962,89.962,0,0,1,12.139-40.358,127.7,127.7,0,0,1,17-23.5c6-6.389,11.749-12.814,19.1-17.748,8.554-5.786,16.4-4.33,17,4.011.284,3.975-3.195,7.773-6.886,10.294.106-1.526.249-3.053.284-4.579,0-.852.106-2.272-.32-2.485a4.919,4.919,0,0,0-3.479-.532c-9.761,4.153-16.4,12.033-23.143,19.771-3.407,3.94-8.2,7.383-9.974,11.962-4.508,11.784-10.719,23.285-11.074,36.276-.213,7.419,1.349,15.582,8.022,19.522,5.786,3.408,13.1.994,19.38-1.1,7.916-2.591,15.618-6,23.5-8.767,2.84-.994,6.709-.781,7.383,2.378.639,2.911-2.769,4.437-5.5,5.75A133.486,133.486,0,0,1,3263.931,1979.139Z" transform="translate(-853.45 -40.837)"/>
    <path id="Path_30" data-name="Path 30" d="M2713.862,1989.809c2.556-.532,1.42-2.626,1.242-4.082-.249-1.881-1.7-3.833-1.313-5.466,2.875-12.707,5.253-25.628,9.371-37.944,4.827-14.411,8.7-29.071,12.672-43.695,1.065-3.869-2.84-4.543-4.969-6.034-.781-.532-3.443-.035-3.62.532-2.023,6.318-4.331,12.636-5.324,19.132-1.881,12.068-6.922,23.036-10.648,34.466-4.3,13.24-8.732,26.444-10.471,41.458.142.319.461,2.343,1.384,2.662a7.036,7.036,0,0,0,5.253-.213l3.514-.887Z" transform="translate(-512.023 -53.282)"/>
    <path id="Path_31" data-name="Path 31" d="M2407.822,1814.565c-3.088,5.892-6.744,11.039-8.59,16.789-3.833,12.033-6.78,24.385-9.939,36.631-2.094,8.235-5.573,16.257-5.076,24.882.142,2.8,2.733,5.537-.177,8.2-4.259,3.869-10.436,4.934-14.624,3.088-3.62-1.562.213-7.206.958-10.826,1.562-7.525,4.153-14.873,6.389-22.255,6.034-20.019,9.548-40.926,21.049-58.993,1.242-1.917,3.266-2.911,5.147-1.952C2404.84,1811.122,2406.224,1813.039,2407.822,1814.565Z" transform="translate(-297.276)"/>
    <path id="Path_32" data-name="Path 32" d="M2873.182,1867.025c-.355-.177-1.6-.462-1.633-.852-.177-1.952-.745-4.33.071-5.857a74.98,74.98,0,0,1,10.4-14.056c3.55-4.011,4.65-10.152,6.993-15.3,2.343-5.182,4.472-12.068,11.429-4.437,1.81,1.988-1.313,4.685-2.449,6.744-4.437,8.27-8.838,16.647-14.2,24.314C2881.275,1861.2,2879.358,1866.422,2873.182,1867.025Z" transform="translate(-621.933 -8.623)"/>
    <path id="Path_33" data-name="Path 33" d="M2157.217,2043.286c5.182-6.992,6.46-16.079,8.341-24.989.781-3.62,1.7-7.17,2.343-10.791.391-2.165,1.455-3.692,3.514-3.124,2.7.745,6.637,1.526,6.673,4.756.142,12.388-4.969,23.746-7.987,35.5-.816,3.159-5.147,3.975-8.412,3.372C2159.915,2047.687,2156.756,2047.51,2157.217,2043.286Z" transform="translate(-161.356 -125.465)"/>
    <path id="Path_34" data-name="Path 34" d="M2377.176,2152.481c-1.1,3.833-4.011,7.347-8.306,7.738-3.479.319-9.761,4.437-10.542-1.81-.994-7.809,6-11.323,12.53-12.885C2374.478,2144.636,2377.069,2147.725,2377.176,2152.481Z" transform="translate(-291.05 -216.487)"/>
    <path id="Path_35" data-name="Path 35" d="M2226.78,1915.5c3.124,1.739,8.483.213,7.773,4.295-.852,5.04-2.946,11.181-9.655,11.678-3.869.284-9.193-1.065-9.3-5.573C2215.528,1919.014,2223.8,1919.937,2226.78,1915.5Z" transform="translate(-199.045 -68.208)"/>
    <path id="Path_36" data-name="Path 36" d="M3850.481,1984.926c-3.479-.426-6.851-.035-9.051,3.692-1.029,1.739-3.656,3.62-5.644,2.52-5.928-3.23-5-9.051-3.585-14.127,2.7-9.619,13.24-13.914,16.186-23.995,3.017-10.436,7.277-20.41,4.934-31.2,1.526-5.821-3.833-5.4-6.283-6.993-1.455-.958-4.011.852-5.75,3.053a44.683,44.683,0,0,0-7.88,13.772,150.975,150.975,0,0,1-7.525,18.032c-.994,2.023,1.171,6.851-3.266,5.928-18.635-3.9-31.768,5.5-43.73,17.606-5.04,5.111-5.821,14.482-17.144,12.53-6.993-1.207-11.252-3.975-9.513-10.9.5-1.988.107-4.4-2.769-5.431-1.278-.461-3.23-2.272-3.052-3.159.745-4.295-1.384-6.318-5.041-6.815-7.809-1.136-28.609,14.695-30.384,22.4-.639,2.769-4.046,2.733-6.389,3.585-.178.071-.816-.39-.816-.6-1.384-13.595-13.737-17.109-22.327-23.959-1.207-.958-4.437-2.378-6.176,1.562-2.662,6,2.165,14.589-6.07,18.351-3.656,1.668-6.176,9.8-10.826,4.4-2.981-3.407-2.591-10.045-6.638-13.666a38.377,38.377,0,0,0-10.4-6.709c-2.521-1.065-4.366,1.242-5.857,3.62a129.874,129.874,0,0,1-8.093,10.684,25.72,25.72,0,0,1-2.52,2.236c-1.278,1.242-2.7.142-2.52-.674,1.171-5.324,2.981-10.507,3.9-15.866.532-2.946-2.769-3.975-4.792-5.182-1.739-1.029-3.692-.639-4.721,1.775a84.925,84.925,0,0,0-5.821,23.285c-1.1,8.8,1.03,12.885,11.146,10.365,7.88-1.988,10.755-8.7,15.8-13.382.887-.816,1.952-2.626,2.449-2.449,1.384.461,3.195,1.455,3.621,2.7a50.578,50.578,0,0,1,1.739,8.661c.532,3.266,1.881,7.241,4.9,7.418,11.252.6,20.268-4.827,28.183-12.317,2.271-2.165,4.934-6.6,6.567-6.247,4.117.923,6.389,4.9,6.105,9.513a4.664,4.664,0,0,0,3.3,5.182c6.6,2.307,13.559-2.733,20.268.887,1.136.6,2.84.107,4.295.071,9.8-.106,18.032-13.985,29.567-2.2,7.49,7.667,19.061.391,28.822,5.466,13.559,6.993,24.456-3.869,35.531-10.223,1.136-.639,2.343-1.1,3.514-1.633.355.887.745,1.739,1.1,2.627,1.42,3.159,2.378,6.5,5.573,8.625,9.726,6.425,18.032.994,26.693-2.769,2.769-1.207,3.656-3.443,3.976-5.857A3.982,3.982,0,0,0,3850.481,1984.926Zm-32.727-14.518c-9.193,4.224-18.493,8.235-28.432,10.294-2.236.461-.746-1.633-.674-2.52.071-.5.674-1.029,1.171-1.42q7.188-5.484,14.447-10.9c4.224-1.242,8.164-1.846,12.21-1.136,1.491.249,2.875,1.207,4.295,1.81C3819.778,1967.923,3819.068,1969.8,3817.755,1970.408Z" transform="translate(-1098.927 -67.602)"/>
    <path id="Path_37" data-name="Path 37" d="M3477.99,2038.736c-6.638-15.015-16.221-24.456-35.673-18.458-11.607,3.585-23.25,10.436-22.4,23.782.319,1.7.816,4.721,4.472,5.537,2.378.532,2.591-1.491,2.875-2.946.923-5.04,3.514-9.122,6.815-12.885a1.8,1.8,0,0,1,1.349-.462c.213.036.6.923.461,1.1-4.579,6.389-3.052,13.807-3.479,20.871-.39,6.247.035,11.891,7.951,13.382,10.578,1.988,19.238-2.84,27.473-7.986C3475.576,2055.773,3482.25,2048.391,3477.99,2038.736Zm-8.945,6.354c-1.384,7.525-19.416,18.138-23,15.476-5-3.763-1.846-9.868-1.491-15.085.319-4.65,5.36-10.081-1.881-13.772-.461-.213-.461-1.313-.674-1.988,2.7-.816,5.431-1.633,6.5-1.952C3460.952,2027.413,3470.607,2036.535,3469.045,2045.089Z" transform="translate(-975.861 -134.616)"/>
  </g>
</svg>
